<?xml version="1.0" encoding="UTF-8"?>
<!DOCTYPE svg PUBLIC "-//W3C//DTD SVG 1.1//EN" "http://www.w3.org/Graphics/SVG/1.1/DTD/svg11.dtd">
<svg xmlns="http://www.w3.org/2000/svg" version="1.1" width="500px" height="500px" style="shape-rendering:geometricPrecision; text-rendering:geometricPrecision; image-rendering:optimizeQuality; fill-rule:evenodd; clip-rule:evenodd" xmlns:xlink="http://www.w3.org/1999/xlink">
<g><path style="opacity:1" fill="#fefefe" d="M -0.5,-0.5 C 166.167,-0.5 332.833,-0.5 499.5,-0.5C 499.5,166.167 499.5,332.833 499.5,499.5C 332.833,499.5 166.167,499.5 -0.5,499.5C -0.5,332.833 -0.5,166.167 -0.5,-0.5 Z"/></g>
<g><path style="opacity:1" fill="#fabb5b" d="M 252.5,108.5 C 199.937,110.889 165.771,137.222 150,187.5C 148.543,195.775 147.71,204.108 147.5,212.5C 139.692,166.949 156.358,133.449 197.5,112C 215.596,104.894 233.929,103.728 252.5,108.5 Z"/></g>
<g><path style="opacity:1" fill="#0d1e32" d="M 252.5,108.5 C 296.733,110.591 328.233,131.591 347,171.5C 363.592,222.051 351.259,264.051 310,297.5C 308.295,299.577 307.128,301.91 306.5,304.5C 305.957,304.56 305.624,304.893 305.5,305.5C 308.086,306.48 310.753,306.813 313.5,306.5C 314.451,307.919 314.784,309.585 314.5,311.5C 310.894,311.211 307.394,311.544 304,312.5C 303.501,316.821 303.334,321.154 303.5,325.5C 307.182,325.335 310.848,325.501 314.5,326C 315.86,327.938 315.527,329.604 313.5,331C 310.183,331.498 306.85,331.665 303.5,331.5C 303.5,335.833 303.5,340.167 303.5,344.5C 307.226,344.177 310.893,344.511 314.5,345.5C 315.859,347.306 315.525,348.806 313.5,350C 310.183,350.498 306.85,350.665 303.5,350.5C 303.666,358.507 303.5,366.507 303,374.5C 302.5,375 302,375.5 301.5,376C 297.167,376.333 292.833,376.667 288.5,377C 284.793,383.205 279.46,387.539 272.5,390C 255.89,395.205 239.556,394.539 223.5,388C 218.147,385.82 214.813,381.987 213.5,376.5C 208.901,376.8 204.401,376.467 200,375.5C 199.501,369.843 199.334,364.176 199.5,358.5C 195.563,358.793 191.73,358.46 188,357.5C 187.289,355.633 187.789,354.133 189.5,353C 191.81,352.503 194.143,352.337 196.5,352.5C 197.5,352.5 198.5,352.5 199.5,352.5C 199.5,347.833 199.5,343.167 199.5,338.5C 197.265,338.205 195.265,338.539 193.5,339.5C 188.877,340.592 187.044,338.925 188,334.5C 190.381,333.565 192.881,333.232 195.5,333.5C 196.833,333.5 198.167,333.5 199.5,333.5C 199.5,328.833 199.5,324.167 199.5,319.5C 196.167,319.5 192.833,319.5 189.5,319.5C 186.876,317.802 186.876,315.969 189.5,314C 192.482,313.502 195.482,313.335 198.5,313.5C 198.311,308.433 196.811,303.766 194,299.5C 187.636,292.801 180.969,286.468 174,280.5C 157.228,261.031 148.395,238.365 147.5,212.5C 147.71,204.108 148.543,195.775 150,187.5C 165.771,137.222 199.937,110.889 252.5,108.5 Z"/></g>
<g><path style="opacity:1" fill="#febc59" d="M 278.5,118.5 C 312.313,142.743 324.813,175.41 316,216.5C 299.387,261.071 267.22,281.905 219.5,279C 193.579,274.722 173.245,261.889 158.5,240.5C 146.556,194.83 159.556,157.996 197.5,130C 222.769,113.783 249.769,109.949 278.5,118.5 Z"/></g>
<g><path style="opacity:1" fill="#fdfdfd" d="M 278.5,118.5 C 316.946,130.785 340.113,156.785 348,196.5C 351.958,226.355 344.291,252.689 325,275.5C 318.525,282.064 311.858,288.398 305,294.5C 302.344,298.144 300.511,302.144 299.5,306.5C 267.892,309.339 236.226,311.339 204.5,312.5C 204.106,306.703 202.272,301.37 199,296.5C 189.691,287.523 180.691,278.19 172,268.5C 166.069,259.881 161.569,250.548 158.5,240.5C 173.245,261.889 193.579,274.722 219.5,279C 267.22,281.905 299.387,261.071 316,216.5C 324.813,175.41 312.313,142.743 278.5,118.5 Z"/></g>
<g><path style="opacity:1" fill="#687481" d="M 306.5,304.5 C 308.833,305.167 311.167,305.833 313.5,306.5C 310.753,306.813 308.086,306.48 305.5,305.5C 305.624,304.893 305.957,304.56 306.5,304.5 Z"/></g>
<g><path style="opacity:1" fill="#fafafa" d="M 289.5,312.5 C 292.167,312.5 294.833,312.5 297.5,312.5C 297.5,317.167 297.5,321.833 297.5,326.5C 267.114,328.021 236.781,330.021 206.5,332.5C 205.507,327.88 205.173,323.214 205.5,318.5C 233.73,317.649 261.73,315.649 289.5,312.5 Z"/></g>
<g><path style="opacity:1" fill="#9fa6ae" d="M 189.5,319.5 C 192.833,319.5 196.167,319.5 199.5,319.5C 199.5,324.167 199.5,328.833 199.5,333.5C 198.167,333.5 196.833,333.5 195.5,333.5C 196.209,332.596 197.209,332.263 198.5,332.5C 198.5,328.5 198.5,324.5 198.5,320.5C 195.287,320.81 192.287,320.477 189.5,319.5 Z"/></g>
<g><path style="opacity:1" fill="#f9f9fa" d="M 280.5,332.5 C 286.167,332.5 291.833,332.5 297.5,332.5C 297.5,336.833 297.5,341.167 297.5,345.5C 266.812,347.168 236.145,349.168 205.5,351.5C 205.5,347.167 205.5,342.833 205.5,338.5C 230.699,337.194 255.699,335.194 280.5,332.5 Z"/></g>
<g><path style="opacity:1" fill="#9ba3ab" d="M 193.5,339.5 C 195.265,338.539 197.265,338.205 199.5,338.5C 199.5,343.167 199.5,347.833 199.5,352.5C 198.5,352.5 197.5,352.5 196.5,352.5C 198.334,348.486 199.001,344.153 198.5,339.5C 196.833,339.5 195.167,339.5 193.5,339.5 Z"/></g>
<g><path style="opacity:1" fill="#f7f8f9" d="M 286.5,351.5 C 290.167,351.5 293.833,351.5 297.5,351.5C 297.5,357.833 297.5,364.167 297.5,370.5C 266.833,370.5 236.167,370.5 205.5,370.5C 205.5,366.167 205.5,361.833 205.5,357.5C 232.662,355.7 259.662,353.7 286.5,351.5 Z"/></g>
<g><path style="opacity:1" fill="#41505f" d="M 219.5,376.5 C 240.337,375.172 261.337,375.172 282.5,376.5C 282.376,377.107 282.043,377.44 281.5,377.5C 261.007,376.503 240.34,376.169 219.5,376.5 Z"/></g>
<g><path style="opacity:1" fill="#fafbfb" d="M 219.5,376.5 C 240.34,376.169 261.007,376.503 281.5,377.5C 272.643,384.516 262.476,387.849 251,387.5C 241.199,387.951 232.033,385.784 223.5,381C 221.959,379.629 220.625,378.129 219.5,376.5 Z"/></g>
</svg>
