<?xml version="1.0" encoding="UTF-8"?>
<!DOCTYPE svg PUBLIC "-//W3C//DTD SVG 1.1//EN" "http://www.w3.org/Graphics/SVG/1.1/DTD/svg11.dtd">
<svg xmlns="http://www.w3.org/2000/svg" version="1.1" width="214px" height="214px" style="shape-rendering:geometricPrecision; text-rendering:geometricPrecision; image-rendering:optimizeQuality; fill-rule:evenodd; clip-rule:evenodd" xmlns:xlink="http://www.w3.org/1999/xlink">
<g><path style="opacity:1" fill="#fefefe" d="M -0.5,-0.5 C 70.8333,-0.5 142.167,-0.5 213.5,-0.5C 213.5,70.8333 213.5,142.167 213.5,213.5C 142.167,213.5 70.8333,213.5 -0.5,213.5C -0.5,142.167 -0.5,70.8333 -0.5,-0.5 Z"/></g>
<g><path style="opacity:1" fill="#f4b960" d="M 151.5,13.5 C 133.738,16.2605 124.405,26.5939 123.5,44.5C 120.932,26.528 128.765,15.8614 147,12.5C 148.707,12.5085 150.207,12.8418 151.5,13.5 Z"/></g>
<g><path style="opacity:1" fill="#1d2a3c" d="M 151.5,13.5 C 175.467,14.9655 186.301,27.6322 184,51.5C 183.333,53.5 182.667,55.5 182,57.5C 178.757,62.8276 174.924,67.6609 170.5,72C 173.051,73.5158 172.718,74.3491 169.5,74.5C 169.5,75.8333 169.5,77.1667 169.5,78.5C 174.833,78.8333 174.833,79.1667 169.5,79.5C 169.5,81.1667 169.5,82.8333 169.5,84.5C 174.833,84.8333 174.833,85.1667 169.5,85.5C 169.5,88.1667 169.5,90.8333 169.5,93.5C 165.789,94.5875 162.122,96.0875 158.5,98C 155.167,98.6667 151.833,98.6667 148.5,98C 145.48,96.3004 142.48,94.6337 139.5,93C 138.62,91.6439 138.286,90.1439 138.5,88.5C 134.5,87.8333 134.5,87.1667 138.5,86.5C 138.5,85.1667 138.5,83.8333 138.5,82.5C 134.5,81.8333 134.5,81.1667 138.5,80.5C 138.5,79.1667 138.5,77.8333 138.5,76.5C 134.665,75.9965 134.665,74.9965 138.5,73.5C 136.229,69.7261 133.396,66.3928 130,63.5C 125.557,57.9473 123.391,51.614 123.5,44.5C 124.405,26.5939 133.738,16.2605 151.5,13.5 Z"/></g>
<g><path style="opacity:1" fill="#f9f8f8" d="M 162.5,16.5 C 178.25,22.3164 185.083,33.6497 183,50.5C 180.152,58.8587 175.319,65.8587 168.5,71.5C 159.242,73.6756 149.908,74.3423 140.5,73.5C 137.887,68.3937 134.387,64.0604 130,60.5C 128.878,58.5932 128.045,56.5932 127.5,54.5C 136.244,64.7369 146.91,67.2369 159.5,62C 171.122,55.589 175.955,45.7556 174,32.5C 171.859,25.8595 168.026,20.5262 162.5,16.5 Z"/></g>
<g><path style="opacity:1" fill="#febd5a" d="M 162.5,16.5 C 168.026,20.5262 171.859,25.8595 174,32.5C 175.955,45.7556 171.122,55.589 159.5,62C 146.91,67.2369 136.244,64.7369 127.5,54.5C 122.193,35.9473 128.526,23.114 146.5,16C 151.885,15.2665 157.218,15.4332 162.5,16.5 Z"/></g>
<g><path style="opacity:1" fill="#e5e7e9" d="M 158.5,74.5 C 161.833,74.5 165.167,74.5 168.5,74.5C 168.5,75.8333 168.5,77.1667 168.5,78.5C 159.144,79.0196 149.811,79.6862 140.5,80.5C 140.5,78.8333 140.5,77.1667 140.5,75.5C 146.69,75.8229 152.69,75.4896 158.5,74.5 Z"/></g>
<g><path style="opacity:1" fill="#ecedef" d="M 151.5,80.5 C 156.833,80.5 162.167,80.5 167.5,80.5C 167.5,81.8333 167.5,83.1667 167.5,84.5C 158.502,84.8808 149.502,85.2141 140.5,85.5C 140.5,84.1667 140.5,82.8333 140.5,81.5C 144.371,81.815 148.038,81.4816 151.5,80.5 Z"/></g>
<g><path style="opacity:1" fill="#fbfbfb" d="M 162.5,86.5 C 164.167,86.5 165.833,86.5 167.5,86.5C 167.5,88.1667 167.5,89.8333 167.5,91.5C 158.5,91.5 149.5,91.5 140.5,91.5C 140.5,90.1667 140.5,88.8333 140.5,87.5C 147.854,87.5208 155.187,87.1875 162.5,86.5 Z"/></g>
<g><path style="opacity:1" fill="#737e89" d="M 162.5,86.5 C 164.265,85.5386 166.265,85.2053 168.5,85.5C 168.795,87.7354 168.461,89.7354 167.5,91.5C 167.5,89.8333 167.5,88.1667 167.5,86.5C 165.833,86.5 164.167,86.5 162.5,86.5 Z"/></g>
<g><path style="opacity:1" fill="#f9fafa" d="M 145.5,94.5 C 150.985,93.3483 156.651,93.1816 162.5,94C 156.919,97.0915 151.252,97.2581 145.5,94.5 Z"/></g>
<g><path style="opacity:1" fill="#fd8bd1" d="M 169.5,183.5 C 171.544,161.901 172.044,140.235 171,118.5C 169.289,112.959 165.789,109.292 160.5,107.5C 165.463,104.117 170.796,103.617 176.5,106C 178.041,107.579 179.208,109.413 180,111.5C 180.667,132.833 180.667,154.167 180,175.5C 178.377,180.622 174.877,183.288 169.5,183.5 Z"/></g>
<g><path style="opacity:1" fill="#251f23" d="M 160.5,107.5 C 165.789,109.292 169.289,112.959 171,118.5C 172.044,140.235 171.544,161.901 169.5,183.5C 165.696,193.081 158.696,198.915 148.5,201C 142.833,201.667 137.167,201.667 131.5,201C 123.695,197.219 120.862,191.053 123,182.5C 127.006,176.489 132.673,173.489 140,173.5C 140.038,154.435 140.704,135.435 142,116.5C 145.782,108.86 151.949,105.86 160.5,107.5 Z"/></g>
<g><path style="opacity:1" fill="#fd8ad1" d="M 159.5,110.5 C 163.268,111.137 166.101,113.137 168,116.5C 168.667,137.167 168.667,157.833 168,178.5C 167.802,180.382 167.302,182.048 166.5,183.5C 162.146,182.644 159.646,179.977 159,175.5C 158.171,153.663 158.337,131.996 159.5,110.5 Z"/></g>
<g><path style="opacity:1" fill="#fcfcfc" d="M 159.5,110.5 C 158.337,131.996 158.171,153.663 159,175.5C 159.646,179.977 162.146,182.644 166.5,183.5C 162.565,192.576 155.565,197.742 145.5,199C 139.574,200.11 133.908,199.444 128.5,197C 122.683,190.041 123.35,183.708 130.5,178C 133.833,177.333 137.167,176.667 140.5,176C 141.701,175.097 142.535,173.931 143,172.5C 143.333,153.833 143.667,135.167 144,116.5C 147.727,110.375 152.893,108.375 159.5,110.5 Z"/></g>
<g><path style="opacity:1" fill="#7ed858" d="M 33.5,126.5 C 33.3334,147.836 33.5,169.169 34,190.5C 35.7572,196.426 39.5905,200.092 45.5,201.5C 44.5475,203.61 42.8808,204.777 40.5,205C 33.8887,206.943 29.3887,204.777 27,198.5C 26.3333,176.5 26.3333,154.5 27,132.5C 28.3845,129.614 30.5512,127.614 33.5,126.5 Z"/></g>
<g><path style="opacity:1" fill="#20241e" d="M 45.5,201.5 C 39.5905,200.092 35.7572,196.426 34,190.5C 33.5,169.169 33.3334,147.836 33.5,126.5C 33.5463,110.618 41.213,104.785 56.5,109C 60.3022,111.087 62.8022,114.254 64,118.5C 64.4997,125.826 64.6663,133.159 64.5,140.5C 72.1667,140.5 79.8333,140.5 87.5,140.5C 87.3336,132.826 87.5003,125.159 88,117.5C 92.8224,107.846 100.322,105.013 110.5,109C 113.473,110.765 115.64,113.265 117,116.5C 117.667,141.5 117.667,166.5 117,191.5C 113.391,201.089 106.558,204.256 96.5,201C 91.9481,199.412 89.1148,196.245 88,191.5C 87.5003,183.841 87.3336,176.174 87.5,168.5C 79.8333,168.5 72.1667,168.5 64.5,168.5C 64.6663,175.841 64.4997,183.174 64,190.5C 60.8959,199.141 54.7292,202.808 45.5,201.5 Z"/></g>
<g><path style="opacity:1" fill="#80d95a" d="M 36.5,126.5 C 42.3871,126.221 46.2204,128.888 48,134.5C 48.8112,156.21 48.6445,177.876 47.5,199.5C 42.5561,199.398 39.0561,197.065 37,192.5C 36.5,170.503 36.3334,148.503 36.5,126.5 Z"/></g>
<g><path style="opacity:1" fill="#fcfcfc" d="M 61.5,120.5 C 61.5,128.167 61.5,135.833 61.5,143.5C 71.015,143.827 80.3483,143.494 89.5,142.5C 89.3336,134.493 89.5003,126.493 90,118.5C 94.129,110.024 100.629,107.524 109.5,111C 112.381,112.251 114.214,114.417 115,117.5C 115.667,141.833 115.667,166.167 115,190.5C 114.496,194.02 112.663,196.52 109.5,198C 99.8515,202.088 93.3515,199.255 90,189.5C 89.5003,181.507 89.3336,173.507 89.5,165.5C 80.1667,165.5 70.8333,165.5 61.5,165.5C 61.9204,175.247 61.4204,184.914 60,194.5C 56.7164,198.204 52.5498,199.871 47.5,199.5C 48.6445,177.876 48.8112,156.21 48,134.5C 46.2204,128.888 42.3871,126.221 36.5,126.5C 34.9385,114.229 40.2718,108.729 52.5,110C 58.1808,111.191 61.1808,114.691 61.5,120.5 Z"/></g>
<g><path style="opacity:1" fill="#404040" d="M 61.5,120.5 C 62.4916,127.648 62.825,134.981 62.5,142.5C 71.5,142.5 80.5,142.5 89.5,142.5C 80.3483,143.494 71.015,143.827 61.5,143.5C 61.5,135.833 61.5,128.167 61.5,120.5 Z"/></g>
</svg>
