<?xml version="1.0" encoding="UTF-8"?>
<!DOCTYPE svg PUBLIC "-//W3C//DTD SVG 1.1//EN" "http://www.w3.org/Graphics/SVG/1.1/DTD/svg11.dtd">
<svg xmlns="http://www.w3.org/2000/svg" version="1.1" width="28px" height="30px" style="shape-rendering:geometricPrecision; text-rendering:geometricPrecision; image-rendering:optimizeQuality; fill-rule:evenodd; clip-rule:evenodd" xmlns:xlink="http://www.w3.org/1999/xlink">
<g><path style="opacity:1" fill="#fafafa" d="M -0.5,-0.5 C 8.83333,-0.5 18.1667,-0.5 27.5,-0.5C 27.5,9.5 27.5,19.5 27.5,29.5C 18.1667,29.5 8.83333,29.5 -0.5,29.5C -0.5,19.5 -0.5,9.5 -0.5,-0.5 Z"/></g>
<g><path style="opacity:1" fill="#6f6d69" d="M 7.5,5.5 C 11.8394,4.84614 15.6727,5.84614 19,8.5C 19.6,18.5628 15.2666,21.5628 6,17.5C 3.66029,13.0521 4.16029,9.05205 7.5,5.5 Z"/></g>
<g><path style="opacity:1" fill="#f4f4f4" d="M 9.5,6.5 C 16.1623,5.9973 18.6623,8.9973 17,15.5C 13.6667,19.5 10.3333,19.5 7,15.5C 5.77945,11.7179 6.61279,8.71794 9.5,6.5 Z"/></g>
<g><path style="opacity:1" fill="#979693" d="M 17.5,19.5 C 17.56,18.9569 17.8933,18.6236 18.5,18.5C 19.8333,19.5 21.1667,20.5 22.5,21.5C 22,21.8333 21.5,22.1667 21,22.5C 19.8261,21.4558 18.6594,20.4558 17.5,19.5 Z"/></g>
</svg>
